<svg xmlns="http://www.w3.org/2000/svg" width="32" height="32" viewBox="0 0 193 178" fill="none">
  <path d="M185.124 140.566C190.086 130.732 192.586 119.84 192.408 108.826C192.231 97.8129 189.382 87.0072 184.106 77.3381C178.83 67.669 171.285 59.4256 162.119 53.3164C152.954 47.2073 142.442 43.4151 131.487 42.2659C128.01 33.7995 122.859 26.1219 116.344 19.693C109.829 13.264 102.084 8.21583 93.5725 4.85072C85.0607 1.48562 75.9573 -0.127214 66.8075 0.108804C57.6577 0.344821 48.6496 2.42483 40.3226 6.22429C31.9956 10.0238 24.521 15.4645 18.3463 22.2208C12.1716 28.9771 7.42377 36.91 4.38716 45.5444C1.35055 54.1789 0.0875904 63.3373 0.673898 72.4714C1.26021 81.6054 3.68373 90.5272 7.79935 98.7026L0.935544 122.748C0.424167 124.542 0.401533 126.44 0.86998 128.245C1.33843 130.051 2.28093 131.698 3.59994 133.017C4.91894 134.336 6.5665 135.279 8.37207 135.747C10.1776 136.216 12.0756 136.193 13.8695 135.682L37.9146 128.818C45.2671 132.512 53.227 134.846 61.4102 135.708C64.9698 144.389 70.2856 152.241 77.0239 158.77C83.7623 165.299 91.7777 170.365 100.567 173.649C109.356 176.933 118.729 178.365 128.098 177.854C137.467 177.343 146.629 174.901 155.009 170.681L179.054 177.545C180.848 178.056 182.746 178.079 184.552 177.61C186.357 177.142 188.005 176.199 189.324 174.88C190.643 173.561 191.585 171.914 192.054 170.108C192.522 168.303 192.5 166.405 191.988 164.611L185.124 140.566ZM38.4902 117.977C38.0034 117.975 37.5188 118.042 37.0512 118.178L10.9914 125.626L18.4308 99.5747C18.8108 98.2517 18.6541 96.8322 17.9947 95.6239C11.3784 83.4657 9.36469 69.3305 12.3227 55.8084C15.2807 42.2863 23.0124 30.283 34.1008 21.9978C45.1893 13.7127 58.8919 9.70073 72.6979 10.697C86.5038 11.6933 99.4885 17.6312 109.272 27.4226C119.056 37.214 124.984 50.2031 125.97 64.0098C126.956 77.8165 122.934 91.5161 114.64 102.598C106.347 113.68 94.3375 121.403 80.8131 124.351C67.2888 127.299 53.1551 125.274 41.002 118.649C40.2332 118.22 39.3701 117.99 38.4902 117.977ZM174.484 141.429L181.932 167.489L155.881 160.049C154.558 159.669 153.139 159.826 151.93 160.485C145.163 164.175 137.724 166.467 130.054 167.227C122.383 167.987 114.639 167.198 107.279 164.909C99.9196 162.619 93.0947 158.874 87.2095 153.897C81.3242 148.92 76.4985 142.812 73.0185 135.935C82.8034 135.298 92.3346 132.551 100.958 127.883C109.581 123.215 117.092 116.736 122.975 108.891C128.857 101.046 132.973 92.0213 135.038 82.4357C137.104 72.8502 137.071 62.9311 134.941 53.3596C143.873 55.0229 152.285 58.7771 159.488 64.315C166.691 69.853 172.481 77.0173 176.384 85.2222C180.287 93.4271 182.192 102.439 181.944 111.522C181.695 120.604 179.301 129.499 174.955 137.478C174.284 138.682 174.115 140.101 174.484 141.429Z" fill="#85919C"/>
</svg>