<svg xmlns="http://www.w3.org/2000/svg" width="168" height="142" viewBox="0 0 168 142" fill="none">
<path d="M156.327 0.459717H12.0788C9.03562 0.459717 6.11709 1.66861 3.96524 3.82046C1.81339 5.97231 0.604492 8.89085 0.604492 11.934V129.955C0.604492 132.999 1.81339 135.917 3.96524 138.069C6.11709 140.221 9.03562 141.43 12.0788 141.43H156.327C159.37 141.43 162.289 140.221 164.441 138.069C166.593 135.917 167.802 132.999 167.802 129.955V11.934C167.802 8.89085 166.593 5.97231 164.441 3.82046C162.289 1.66861 159.37 0.459717 156.327 0.459717ZM12.0788 10.2948H156.327C156.762 10.2948 157.179 10.4675 157.486 10.7749C157.794 11.0823 157.966 11.4993 157.966 11.934V100.098L133.813 75.9443C132.747 74.8786 131.483 74.0333 130.09 73.4566C128.698 72.8799 127.206 72.5831 125.699 72.5831C124.192 72.5831 122.7 72.8799 121.308 73.4566C119.916 74.0333 118.651 74.8786 117.585 75.9443L100.029 93.4999L62.8116 56.274C61.7461 55.2084 60.4811 54.3631 59.0889 53.7864C57.6967 53.2097 56.2046 52.9129 54.6976 52.9129C53.1907 52.9129 51.6986 53.2097 50.3064 53.7864C48.9142 54.3631 47.6492 55.2084 46.5837 56.274L10.4396 92.4181V11.934C10.4396 11.4993 10.6123 11.0823 10.9197 10.7749C11.2271 10.4675 11.6441 10.2948 12.0788 10.2948ZM10.4396 129.955V106.327L53.5338 63.2324C53.6862 63.0787 53.8675 62.9568 54.0673 62.8736C54.267 62.7903 54.4813 62.7475 54.6976 62.7475C54.914 62.7475 55.1283 62.7903 55.328 62.8736C55.5278 62.9568 55.7091 63.0787 55.8615 63.2324L124.224 131.595H12.0788C11.6441 131.595 11.2271 131.422 10.9197 131.115C10.6123 130.807 10.4396 130.39 10.4396 129.955ZM156.327 131.595H138.132L106.988 100.45L124.535 82.8944C124.687 82.742 124.868 82.6211 125.067 82.5386C125.266 82.4561 125.479 82.4136 125.695 82.4136C125.91 82.4136 126.124 82.4561 126.323 82.5386C126.522 82.6211 126.702 82.742 126.855 82.8944L157.999 114.039V129.955C157.999 130.173 157.956 130.389 157.871 130.59C157.787 130.791 157.663 130.974 157.508 131.126C157.352 131.279 157.167 131.399 156.965 131.479C156.762 131.56 156.545 131.599 156.327 131.595ZM98.9557 47.9961C98.9557 46.3751 99.4364 44.7905 100.337 43.4427C101.238 42.0949 102.518 41.0444 104.015 40.4241C105.513 39.8037 107.161 39.6414 108.751 39.9577C110.34 40.2739 111.801 41.0545 112.947 42.2007C114.093 43.3469 114.874 44.8073 115.19 46.3972C115.506 47.987 115.344 49.635 114.724 51.1326C114.103 52.6302 113.053 53.9102 111.705 54.8108C110.357 55.7114 108.773 56.1921 107.152 56.1921C104.978 56.1921 102.893 55.3286 101.356 53.7915C99.8192 52.2545 98.9557 50.1698 98.9557 47.9961Z" fill="#85919C"/>
</svg>