<svg xmlns="http://www.w3.org/2000/svg" width="140" height="146" viewBox="0 0 140 146" fill="none">
  <path d="M139.464 97.6271C139.464 98.854 138.976 100.031 138.109 100.898C137.241 101.766 136.064 102.253 134.838 102.253H114.791V117.673H128.669C129.896 117.673 131.073 118.161 131.941 119.028C132.808 119.896 133.296 121.073 133.296 122.299C133.296 123.526 132.808 124.703 131.941 125.571C131.073 126.438 129.896 126.925 128.669 126.925H114.791V140.804C114.791 142.031 114.304 143.207 113.436 144.075C112.569 144.942 111.392 145.43 110.165 145.43C108.938 145.43 107.762 144.942 106.894 144.075C106.027 143.207 105.539 142.031 105.539 140.804V97.6271C105.539 96.4002 106.027 95.2235 106.894 94.3559C107.762 93.4884 108.938 93.001 110.165 93.001H134.838C136.064 93.001 137.241 93.4884 138.109 94.3559C138.976 95.2235 139.464 96.4002 139.464 97.6271ZM37.6902 113.047C37.6902 118.364 35.5782 123.463 31.8187 127.222C28.0593 130.982 22.9605 133.094 17.6439 133.094H9.93377V140.804C9.93377 142.031 9.44639 143.207 8.57883 144.075C7.71127 144.942 6.53462 145.43 5.30771 145.43C4.0808 145.43 2.90414 144.942 2.03658 144.075C1.16903 143.207 0.681641 142.031 0.681641 140.804V97.6271C0.681641 96.4002 1.16903 95.2235 2.03658 94.3559C2.90414 93.4884 4.0808 93.001 5.30771 93.001H17.6439C22.9605 93.001 28.0593 95.113 31.8187 98.8724C35.5782 102.632 37.6902 107.731 37.6902 113.047ZM28.438 113.047C28.438 110.185 27.3008 107.439 25.2765 105.415C23.2522 103.39 20.5067 102.253 17.6439 102.253H9.93377V123.841H17.6439C20.5067 123.841 23.2522 122.704 25.2765 120.68C27.3008 118.656 28.438 115.91 28.438 113.047ZM93.203 119.215C93.203 126.168 90.4411 132.836 85.5249 137.752C80.6088 142.668 73.9411 145.43 66.9886 145.43H54.6524C53.4255 145.43 52.2488 144.942 51.3813 144.075C50.5137 143.207 50.0263 142.031 50.0263 140.804V97.6271C50.0263 96.4002 50.5137 95.2235 51.3813 94.3559C52.2488 93.4884 53.4255 93.001 54.6524 93.001H66.9886C73.9411 93.001 80.6088 95.7629 85.5249 100.679C90.4411 105.595 93.203 112.263 93.203 119.215ZM83.9508 119.215C83.9508 114.717 82.1637 110.402 78.9827 107.221C75.8017 104.04 71.4873 102.253 66.9886 102.253H59.2785V136.178H66.9886C71.4873 136.178 75.8017 134.391 78.9827 131.21C82.1637 128.028 83.9508 123.714 83.9508 119.215ZM0.681641 66.7866V11.2738C0.681641 8.41104 1.81888 5.66551 3.84318 3.64121C5.86747 1.61692 8.61301 0.479677 11.4758 0.479677H85.4929C86.1014 0.479198 86.7042 0.598814 87.2665 0.831669C87.8288 1.06452 88.3396 1.40604 88.7696 1.83666L131.946 45.0133C132.811 45.8813 133.296 47.057 133.296 48.2824V66.7866C133.296 68.0135 132.808 69.1902 131.941 70.0577C131.073 70.9253 129.896 71.4127 128.669 71.4127C127.443 71.4127 126.266 70.9253 125.398 70.0577C124.531 69.1902 124.043 68.0135 124.043 66.7866V52.9084H85.4929C84.2659 52.9084 83.0893 52.421 82.2217 51.5535C81.3542 50.6859 80.8668 49.5093 80.8668 48.2824V9.73181H11.4758C11.0668 9.73181 10.6746 9.89427 10.3854 10.1835C10.0962 10.4726 9.93377 10.8649 9.93377 11.2738V66.7866C9.93377 68.0135 9.44639 69.1902 8.57883 70.0577C7.71127 70.9253 6.53462 71.4127 5.30771 71.4127C4.0808 71.4127 2.90414 70.9253 2.03658 70.0577C1.16903 69.1902 0.681641 68.0135 0.681641 66.7866ZM90.1189 43.6563H117.505L90.1189 16.27V43.6563Z" fill="#85919C"/>
</svg>